<svg width="604" height="144" viewBox="0 0 604 144" fill="none" xmlns="http://www.w3.org/2000/svg">
<path d="M50.4315 7.36638C56.6542 3.74072 64.3458 3.74072 70.5685 7.36638L111.069 30.9635C117.218 34.5464 121 41.1272 121 48.2442V95.7558C121 102.873 117.218 109.454 111.069 113.037L70.5685 136.634C64.3458 140.259 56.6542 140.259 50.4315 136.634L9.93146 113.037C3.7821 109.454 0 102.873 0 95.7558V48.2442C0 41.1272 3.78209 34.5464 9.93146 30.9635L50.4315 7.36638Z" fill="#0029CC"/>
<mask id="mask0_187_176" style="mask-type:alpha" maskUnits="userSpaceOnUse" x="0" y="4" width="121" height="136">
<path d="M50.4315 7.36638C56.6542 3.74072 64.3458 3.74072 70.5685 7.36638L111.069 30.9635C117.218 34.5464 121 41.1272 121 48.2442V95.7558C121 102.873 117.218 109.454 111.069 113.037L70.5685 136.634C64.3458 140.259 56.6542 140.259 50.4315 136.634L9.93146 113.037C3.7821 109.454 0 102.873 0 95.7558V48.2442C0 41.1272 3.78209 34.5464 9.93146 30.9635L50.4315 7.36638Z" fill="#0029CC"/>
</mask>
<g mask="url(#mask0_187_176)">
<g filter="url(#filter0_f_187_176)">
<rect x="11" y="-50" width="138" height="143" rx="20" fill="#92A8FF"/>
</g>
</g>
<path d="M82.9834 73.0662C84.3389 73.2616 84.3389 75.7383 82.9834 75.9338C68.2733 78.0565 64.0565 82.2733 61.9338 96.9834C61.7383 98.3389 59.2616 98.3389 59.0662 96.9834C56.9435 82.2733 52.7265 78.0565 38.0167 75.9338C36.6611 75.7383 36.6611 73.2616 38.0167 73.0662C52.7265 70.9435 56.9435 66.7265 59.0662 52.0167C59.2616 50.6611 61.7383 50.6611 61.9338 52.0167C64.0565 66.7265 68.2733 70.9435 82.9834 73.0662Z" fill="white"/>
<path d="M83.6539 54.5119C84.1154 54.5784 84.1154 55.4216 83.6539 55.4881C78.6462 56.2107 77.2107 57.6462 76.4881 62.6539C76.4216 63.1154 75.5784 63.1154 75.5119 62.6539C74.7893 57.6462 73.3537 56.2107 68.3461 55.4881C67.8846 55.4216 67.8846 54.5784 68.3461 54.5119C73.3537 53.7893 74.7893 52.3537 75.5119 47.3461C75.5784 46.8846 76.4216 46.8846 76.4881 47.3461C77.2107 52.3537 78.6462 53.7893 83.6539 54.5119Z" fill="white"/>
<path d="M176.963 54.0324C179.069 53.6909 181.573 52.9509 179.98 49.0235L176.906 41.3395H163.188L160.172 49.0235C158.635 52.9509 161.026 53.6909 163.188 54.0324V55H151.691V54.0324C153.74 53.6909 156.415 52.9509 157.952 49.0235L171.726 14.0184H175.141L189.371 49.0235C190.965 53.0078 193.128 53.6909 194.778 54.0324V55H176.963V54.0324ZM163.928 39.4042H176.109L169.962 24.093L163.928 39.4042ZM205.939 55.5692C203.548 55.5692 199.735 55 195.181 53.1786L195.238 44.8684H196.206C199.564 51.5849 202.695 53.6339 206.053 53.6339C208.899 53.6339 210.322 52.0971 210.322 49.9911C210.322 46.576 206.451 45.6084 202.125 43.6731C197.06 41.3964 194.555 38.835 194.555 34.9076C194.555 29.6711 198.653 25.9713 205.768 25.9713C208.102 25.9713 211.517 26.4836 215.274 28.0204L215.217 35.7614H214.192C211.574 29.2157 208.443 27.9066 205.711 27.9066C202.695 27.9066 200.93 29.4434 200.93 31.4925C200.93 34.3954 205.028 35.3061 210.379 37.9243C213.509 39.2904 216.867 41.2256 216.867 46.2914C216.867 52.1541 212.371 55.5692 205.939 55.5692ZM228.874 55.5692C224.036 55.5692 221.19 52.2679 221.19 46.5191V28.4189H217.035V27.5082C221.418 25.9713 225.63 22.727 228.362 17.8889H229.5V26.3129H237.241V28.4189H229.5V45.7222C229.5 48.7389 230.753 50.9018 233.143 50.9018C234.282 50.9018 235.477 50.4465 236.786 49.3081L237.526 49.5358C235.989 52.7802 233.314 55.5692 228.874 55.5692ZM237.802 54.1462C239.737 53.8047 241.843 53.0648 241.843 49.1943V32.1186C241.843 28.2481 239.737 27.5082 237.802 27.1666V26.3129H250.096V35.5906C251.405 29.6711 255.959 25.1176 261.708 26.199L260.398 33.8831H259.886C255.162 31.7202 250.722 34.7369 250.096 40.941V49.1943C250.096 53.0648 252.202 53.8047 254.137 54.1462V55H237.802V54.1462ZM269.421 55.5123C264.753 55.5123 261.224 52.211 261.224 47.6575C261.224 41.5102 267.371 37.5259 276.877 39.1765V35.7614C276.877 31.8909 274.031 30.1834 270.9 30.1834C268.339 30.1834 265.265 31.2648 262.932 34.7369L262.078 34.5092C263.33 30.2403 267.542 26.0852 273.974 25.9713C280.577 25.8575 285.016 30.0695 285.016 35.5337V48.5682C285.016 49.9911 285.244 51.3003 286.269 51.3003C286.439 51.3003 286.838 51.2434 287.122 51.1295L287.521 51.471C286.724 53.4632 284.732 55.5123 281.829 55.5123C279.154 55.5123 277.332 53.8047 276.934 51.5279C275.397 53.6909 272.893 55.5123 269.421 55.5123ZM268.851 46.6329C268.851 49.365 270.104 51.8695 272.893 51.8695C274.543 51.8695 275.966 50.9018 276.877 49.7065V40.7134C271.925 40.2011 268.851 42.5348 268.851 46.6329ZM287.519 54.1462C289.454 53.8047 291.617 53.0648 291.617 49.1943V20.1087C291.617 16.1813 289.454 15.8398 287.462 15.8967L287.348 15.0429L299.87 12.88V49.1943C299.87 53.0648 302.033 53.8047 304.025 54.1462V55H287.519V54.1462Z" fill="#0F0F0F"/>
<path d="M153.492 119V117.875C156.446 117.523 159.33 116.538 159.33 111.474V75.8839C159.33 70.8197 156.446 69.835 153.492 69.4833V68.3579H175.578C188.168 68.3579 199.281 78.3457 199.281 93.468C199.281 109.083 188.168 119 175.578 119H153.492ZM168.615 116.679H172.835C183.245 116.679 189.082 105.847 189.012 93.468C189.012 81.4405 183.245 70.7494 172.835 70.7494H168.615V116.679ZM220.476 119.633C212.106 119.633 203.947 113.373 203.947 101.416C203.947 90.2325 210.559 83.3395 220.054 83.3395C230.182 83.3395 235.106 91.2875 235.036 100.502H212.95C213.302 110.067 218.014 114.639 223.852 114.639C227.51 114.639 231.167 112.951 234.192 109.223L235.036 109.434C233.277 114.358 228.213 119.633 220.476 119.633ZM212.95 98.3212H226.384C226.244 92.3426 224.345 85.52 219.913 85.52C215.341 85.52 213.231 92.7646 212.95 98.3212ZM253.148 119.703C249.913 119.703 245.2 118.789 239.925 116.538L240.136 106.621H241.191C244.708 114.921 248.998 117.382 253.219 117.382C256.946 117.382 259.057 115.413 259.057 112.318C259.057 108.028 254.555 106.832 249.209 104.511C242.879 101.838 239.503 99.0245 239.503 94.0307C239.503 87.7004 244.497 83.3395 252.797 83.3395C255.891 83.3395 260.041 84.1132 264.332 86.0123L264.191 95.2264H263.066C260.323 87.3487 256.313 85.6606 252.726 85.6606C248.787 85.6606 246.326 87.6301 246.326 90.4435C246.326 94.1713 251.038 95.2264 257.509 98.1805C261.87 99.9389 266.09 102.33 266.09 108.52C266.09 115.554 260.674 119.703 253.148 119.703ZM267.948 117.945C270.691 117.664 273.364 116.749 273.364 111.896V90.8655C273.364 86.0123 270.761 85.098 268.018 84.8166V83.7616H281.945V111.896C281.945 116.749 284.547 117.664 287.29 117.945V119H267.948V117.945ZM271.183 73.7035C271.183 70.7494 273.645 68.4283 276.599 68.4283C279.553 68.4283 282.015 70.7494 282.015 73.7035C282.015 76.6576 279.483 78.9787 276.599 78.9787C273.716 78.9787 271.183 76.6576 271.183 73.7035ZM305.734 134.755C298.068 134.755 289.557 132.294 289.557 126.385C289.557 123.009 292.441 120.758 295.747 119.774C291.034 118.367 289.839 115.343 289.839 113.162C289.839 109.716 292.722 107.113 296.802 105.777C293.285 103.667 290.823 100.22 290.823 95.6484C290.823 87.7004 298.279 83.2692 305.383 83.2692C308.126 83.2692 310.939 83.9022 313.331 85.1683C315.019 80.7371 319.731 78.838 323.741 79.7524L322.967 85.8717H322.474C319.942 84.4649 317.41 84.6056 314.949 86.0827C317.973 88.1927 320.153 91.4282 320.153 95.6484C320.153 103.596 312.487 108.098 305.383 108.098C302.991 108.098 300.6 107.606 298.49 106.621C296.942 107.535 295.676 108.661 295.676 109.997C295.676 111.615 297.505 113.092 301.936 113.303L312.487 113.654C318.747 113.795 322.967 117.242 322.967 122.939C322.967 130.746 315.511 134.755 305.734 134.755ZM295.958 124.697C295.958 128.988 300.389 132.364 307.563 132.364C314.104 132.364 317.551 129.41 317.551 125.893C317.551 122.798 314.738 121.11 310.447 120.899L301.022 120.547C299.897 120.547 298.842 120.407 297.927 120.266C296.38 121.673 295.958 123.291 295.958 124.697ZM299.545 95.7187C299.545 100.924 301.444 105.917 305.383 105.917C309.322 105.917 311.361 100.924 311.361 95.7187C311.361 90.3732 309.322 85.52 305.383 85.52C301.444 85.52 299.545 90.3732 299.545 95.7187ZM348.136 117.945C350.457 117.664 352.567 116.749 352.567 111.896V95.7187C352.567 90.9359 349.683 88.9664 346.518 88.8961C344.056 88.8961 341.524 90.0215 339.414 92.2722V111.896C339.414 116.749 341.524 117.664 343.845 117.945V119H325.628V117.945C328.231 117.664 330.692 116.749 330.692 111.896V90.8655C330.692 86.0123 328.231 85.098 325.628 84.8166V83.7616H339.414V90.1622C341.805 86.0827 345.674 83.3395 350.527 83.3395C356.084 83.3395 361.289 87.0674 361.289 94.5933V111.896C361.289 116.749 363.821 117.664 366.353 117.945V119H348.136V117.945ZM400.516 119.844C395.663 119.844 389.614 118.508 383.565 115.624V102.682H384.761C387.293 113.303 393.834 117.453 400.235 117.453C405.932 117.453 410.012 114.287 409.871 108.942C409.73 102.541 403.259 99.5872 395.804 96.3517C387.434 92.8349 382.862 88.3334 383.073 81.5811C383.214 73.7738 389.544 67.6546 401.009 67.6546C406.847 67.6546 411.911 69.3426 416.061 71.2417L416.131 83.7616H415.006C412.544 73.6332 406.987 69.9757 400.938 69.9757C394.819 69.9757 391.021 73.3518 390.951 77.572C390.88 82.7769 397 85.731 405.721 89.4588C414.373 93.3976 418.03 97.9695 417.889 105.003C417.678 115.483 409.73 119.844 400.516 119.844ZM420.708 131.59L421.833 124.908L422.677 124.416C428.867 128.144 434.494 126.667 436.252 122.095L436.604 121.251L424.084 90.4435C422.255 85.942 420.286 85.098 418.387 84.8166V83.7616H436.393V84.8166C433.579 85.2386 431.751 86.2937 433.368 90.5138L440.965 110.067L448.702 90.5138C450.39 86.153 448.139 85.098 445.255 84.8166V83.7616H457.494V84.8166C455.384 85.098 453.133 86.0123 451.374 90.5138L438.432 122.798C434.494 132.645 428.867 135.81 420.708 131.59ZM471.462 119.703C468.227 119.703 463.514 118.789 458.239 116.538L458.45 106.621H459.505C463.022 114.921 467.313 117.382 471.533 117.382C475.261 117.382 477.371 115.413 477.371 112.318C477.371 108.028 472.869 106.832 467.524 104.511C461.193 101.838 457.817 99.0245 457.817 94.0307C457.817 87.7004 462.811 83.3395 471.111 83.3395C474.206 83.3395 478.355 84.1132 482.646 86.0123L482.505 95.2264H481.38C478.637 87.3487 474.628 85.6606 471.04 85.6606C467.102 85.6606 464.64 87.6301 464.64 90.4435C464.64 94.1713 469.352 95.2264 475.823 98.1805C480.184 99.9389 484.404 102.33 484.404 108.52C484.404 115.554 478.988 119.703 471.462 119.703ZM499.888 119.633C494.19 119.633 490.885 115.624 490.885 109.083V86.2233H485.75V85.098C490.674 83.5506 495.456 79.7524 498.34 73.7738H499.677V83.7616H509.313V86.2233H499.677V108.168C499.677 111.966 501.224 114.569 504.319 114.569C505.726 114.569 507.273 114.006 509.102 112.459L509.875 112.67C508.047 116.538 504.952 119.633 499.888 119.633ZM527.634 119.633C519.264 119.633 511.105 113.373 511.105 101.416C511.105 90.2325 517.716 83.3395 527.212 83.3395C537.34 83.3395 542.264 91.2875 542.193 100.502H520.108C520.459 110.067 525.172 114.639 531.01 114.639C534.667 114.639 538.325 112.951 541.349 109.223L542.193 109.434C540.435 114.358 535.371 119.633 527.634 119.633ZM520.108 98.3212H533.542C533.401 92.3426 531.502 85.52 527.071 85.52C522.499 85.52 520.389 92.7646 520.108 98.3212ZM585.601 117.945C587.922 117.664 589.962 116.749 589.962 111.896V95.7187C589.962 91.1469 587.219 89.1071 583.843 89.1071C581.662 89.1071 579.482 90.0918 577.442 92.1316C577.583 92.9053 577.653 93.679 577.653 94.5933V111.896C577.653 116.749 579.763 117.664 582.084 117.945V119H564.782V117.945C567.103 117.664 569.142 116.749 569.142 111.896V95.7187C569.142 91.0765 566.47 89.1071 563.094 89.1071C560.843 89.1071 558.733 90.0918 556.834 92.0612V111.896C556.834 116.749 558.944 117.664 561.405 117.945V119H543.118V117.945C545.791 117.664 548.323 116.749 548.323 111.896V90.8655C548.323 86.0123 545.791 85.098 543.118 84.8166V83.7616H556.834V90.1622C559.436 85.942 562.953 83.3395 567.595 83.3395C572.097 83.3395 575.895 85.8013 577.161 90.7249C579.834 86.153 583.561 83.3395 588.344 83.3395C593.83 83.3395 598.543 87.0674 598.543 94.5933V111.896C598.543 116.749 601.005 117.664 603.537 117.945V119H585.601V117.945Z" fill="#0033FF"/>
<defs>
<filter id="filter0_f_187_176" x="-75.1" y="-136.1" width="310.2" height="315.2" filterUnits="userSpaceOnUse" color-interpolation-filters="sRGB">
<feFlood flood-opacity="0" result="BackgroundImageFix"/>
<feBlend mode="normal" in="SourceGraphic" in2="BackgroundImageFix" result="shape"/>
<feGaussianBlur stdDeviation="43.05" result="effect1_foregroundBlur_187_176"/>
</filter>
</defs>
</svg>
