<svg width="693" height="280" viewBox="0 0 693 280" fill="none" xmlns="http://www.w3.org/2000/svg">
<g filter="url(#filter0_d_242_273)">
<g clip-path="url(#clip0_242_273)">
<rect x="70" y="58.3333" width="140" height="140" rx="46.6667" fill="#056C1D"/>
<g filter="url(#filter1_f_242_273)">
<rect x="42.7777" y="-130.903" width="268.333" height="278.056" rx="38.8889" fill="#44E079"/>
</g>
<path d="M158.501 104.653C153.849 104.653 149.998 108.065 149.251 112.538C148.504 108.064 144.652 104.653 140 104.653C135.348 104.653 131.496 108.065 130.75 112.538C130.003 108.064 126.151 104.653 121.499 104.653C116.313 104.653 112.108 108.89 112.108 114.116C112.108 119.341 116.313 123.578 121.499 123.578C126.151 123.578 130.003 120.166 130.75 115.693C131.496 120.167 135.348 123.578 140 123.578C144.652 123.578 148.504 120.166 149.251 115.693C149.998 120.167 153.849 123.578 158.501 123.578C163.687 123.578 167.892 119.341 167.892 114.116C167.892 108.89 163.687 104.653 158.501 104.653V104.653Z" fill="white"/>
<path d="M158.501 133.088C153.849 133.088 149.997 136.5 149.251 140.973C148.504 136.499 144.652 133.088 140 133.088C135.348 133.088 131.496 136.5 130.75 140.973C130.003 136.499 126.151 133.088 121.499 133.088C116.313 133.088 112.108 137.325 112.108 142.551C112.108 147.777 116.313 152.014 121.499 152.014C126.151 152.014 130.003 148.602 130.75 144.128C131.496 148.603 135.348 152.014 140 152.014C144.652 152.014 148.504 148.602 149.251 144.128C149.997 148.603 153.849 152.014 158.501 152.014C163.687 152.014 167.892 147.777 167.892 142.551C167.892 137.325 163.687 133.088 158.501 133.088V133.088Z" fill="white"/>
</g>
</g>
<path d="M265.963 110.366C268.069 110.024 270.573 109.284 268.98 105.357L265.906 97.6728H252.188L249.172 105.357C247.635 109.284 250.026 110.024 252.188 110.366V111.333H240.691V110.366C242.74 110.024 245.415 109.284 246.952 105.357L260.726 70.3517H264.141L278.371 105.357C279.965 109.341 282.128 110.024 283.778 110.366V111.333H265.963V110.366ZM252.928 95.7376H265.109L258.962 80.4264L252.928 95.7376ZM294.939 111.903C292.548 111.903 288.735 111.333 284.181 109.512L284.238 101.202H285.206C288.564 107.918 291.695 109.967 295.053 109.967C297.899 109.967 299.322 108.43 299.322 106.324C299.322 102.909 295.451 101.942 291.125 100.006C286.06 97.7297 283.555 95.1684 283.555 91.241C283.555 86.0044 287.653 82.3047 294.768 82.3047C297.102 82.3047 300.517 82.817 304.274 84.3538L304.217 92.0947H303.192C300.574 85.5491 297.443 84.2399 294.711 84.2399C291.695 84.2399 289.93 85.7767 289.93 87.8258C289.93 90.7287 294.028 91.6394 299.379 94.2577C302.509 95.6237 305.867 97.559 305.867 102.625C305.867 108.487 301.371 111.903 294.939 111.903ZM317.874 111.903C313.036 111.903 310.19 108.601 310.19 102.852V84.7522H306.035V83.8415C310.418 82.3047 314.63 79.0603 317.362 74.2222H318.5V82.6462H326.241V84.7522H318.5V102.056C318.5 105.072 319.753 107.235 322.143 107.235C323.282 107.235 324.477 106.78 325.786 105.641L326.526 105.869C324.989 109.114 322.314 111.903 317.874 111.903ZM326.802 110.48C328.737 110.138 330.843 109.398 330.843 105.528V88.4519C330.843 84.5815 328.737 83.8415 326.802 83.5V82.6462H339.096V91.924C340.405 86.0044 344.959 81.4509 350.708 82.5324L349.398 90.2164H348.886C344.162 88.0535 339.722 91.0702 339.096 97.2744V105.528C339.096 109.398 341.202 110.138 343.137 110.48V111.333H326.802V110.48ZM358.421 111.846C353.753 111.846 350.224 108.544 350.224 103.991C350.224 97.8436 356.371 93.8592 365.877 95.5099V92.0947C365.877 88.2243 363.031 86.5167 359.9 86.5167C357.339 86.5167 354.265 87.5982 351.932 91.0702L351.078 90.8425C352.33 86.5736 356.542 82.4185 362.974 82.3047C369.577 82.1909 374.016 86.4029 374.016 91.8671V104.902C374.016 106.324 374.244 107.634 375.269 107.634C375.439 107.634 375.838 107.577 376.122 107.463L376.521 107.804C375.724 109.797 373.732 111.846 370.829 111.846C368.154 111.846 366.332 110.138 365.934 107.861C364.397 110.024 361.893 111.846 358.421 111.846ZM357.851 102.966C357.851 105.698 359.104 108.203 361.893 108.203C363.543 108.203 364.966 107.235 365.877 106.04V97.0467C360.925 96.5344 357.851 98.8681 357.851 102.966ZM376.519 110.48C378.454 110.138 380.617 109.398 380.617 105.528V76.442C380.617 72.5146 378.454 72.1731 376.462 72.23L376.348 71.3763L388.87 69.2133V105.528C388.87 109.398 391.033 110.138 393.025 110.48V111.333H376.519V110.48Z" fill="#0F0F0F"/>
<path d="M242.492 175.333V174.208C245.446 173.856 248.33 172.872 248.33 167.807V132.217C248.33 127.153 245.446 126.168 242.492 125.817V124.691H264.578C277.168 124.691 288.281 134.679 288.281 149.801C288.281 165.416 277.168 175.333 264.578 175.333H242.492ZM257.615 173.012H261.835C272.245 173.012 278.082 162.18 278.012 149.801C278.012 137.774 272.245 127.083 261.835 127.083H257.615V173.012ZM309.476 175.966C301.106 175.966 292.947 169.706 292.947 157.749C292.947 146.566 299.559 139.673 309.054 139.673C319.182 139.673 324.106 147.621 324.036 156.835H301.95C302.302 166.401 307.014 170.972 312.852 170.972C316.51 170.972 320.167 169.284 323.192 165.557L324.036 165.768C322.277 170.691 317.213 175.966 309.476 175.966ZM301.95 154.655H315.384C315.244 148.676 313.345 141.853 308.913 141.853C304.341 141.853 302.231 149.098 301.95 154.655ZM342.148 176.037C338.913 176.037 334.2 175.122 328.925 172.872L329.136 162.954H330.191C333.708 171.254 337.998 173.716 342.219 173.716C345.946 173.716 348.057 171.746 348.057 168.651C348.057 164.361 343.555 163.165 338.209 160.844C331.879 158.171 328.503 155.358 328.503 150.364C328.503 144.034 333.497 139.673 341.797 139.673C344.891 139.673 349.041 140.447 353.332 142.346L353.191 151.56H352.066C349.323 143.682 345.313 141.994 341.726 141.994C337.787 141.994 335.326 143.963 335.326 146.777C335.326 150.505 340.038 151.56 346.509 154.514C350.87 156.272 355.09 158.664 355.09 164.853C355.09 171.887 349.674 176.037 342.148 176.037ZM356.948 174.278C359.691 173.997 362.364 173.083 362.364 168.229V147.199C362.364 142.346 359.761 141.431 357.018 141.15V140.095H370.945V168.229C370.945 173.083 373.547 173.997 376.29 174.278V175.333H356.948V174.278ZM360.183 130.037C360.183 127.083 362.645 124.762 365.599 124.762C368.553 124.762 371.015 127.083 371.015 130.037C371.015 132.991 368.483 135.312 365.599 135.312C362.716 135.312 360.183 132.991 360.183 130.037ZM394.734 191.089C387.068 191.089 378.557 188.627 378.557 182.719C378.557 179.343 381.441 177.092 384.747 176.107C380.034 174.7 378.839 171.676 378.839 169.495C378.839 166.049 381.722 163.447 385.802 162.11C382.285 160 379.823 156.554 379.823 151.982C379.823 144.034 387.279 139.603 394.383 139.603C397.126 139.603 399.939 140.236 402.331 141.502C404.019 137.07 408.731 135.171 412.741 136.086L411.967 142.205H411.474C408.942 140.798 406.41 140.939 403.949 142.416C406.973 144.526 409.153 147.762 409.153 151.982C409.153 159.93 401.487 164.431 394.383 164.431C391.991 164.431 389.6 163.939 387.49 162.954C385.942 163.869 384.676 164.994 384.676 166.33C384.676 167.948 386.505 169.425 390.936 169.636L401.487 169.988C407.747 170.128 411.967 173.575 411.967 179.272C411.967 187.079 404.511 191.089 394.734 191.089ZM384.958 181.031C384.958 185.321 389.389 188.697 396.563 188.697C403.104 188.697 406.551 185.743 406.551 182.226C406.551 179.131 403.738 177.443 399.447 177.232L390.022 176.881C388.897 176.881 387.842 176.74 386.927 176.599C385.38 178.006 384.958 179.624 384.958 181.031ZM388.545 152.052C388.545 157.257 390.444 162.251 394.383 162.251C398.322 162.251 400.361 157.257 400.361 152.052C400.361 146.707 398.322 141.853 394.383 141.853C390.444 141.853 388.545 146.707 388.545 152.052ZM437.136 174.278C439.457 173.997 441.567 173.083 441.567 168.229V152.052C441.567 147.269 438.683 145.3 435.518 145.229C433.056 145.229 430.524 146.355 428.414 148.606V168.229C428.414 173.083 430.524 173.997 432.845 174.278V175.333H414.628V174.278C417.231 173.997 419.692 173.083 419.692 168.229V147.199C419.692 142.346 417.231 141.431 414.628 141.15V140.095H428.414V146.496C430.805 142.416 434.674 139.673 439.527 139.673C445.084 139.673 450.289 143.401 450.289 150.927V168.229C450.289 173.083 452.821 173.997 455.353 174.278V175.333H437.136V174.278ZM489.516 176.177C484.663 176.177 478.614 174.841 472.565 171.957V159.015H473.761C476.293 169.636 482.834 173.786 489.235 173.786C494.932 173.786 499.012 170.621 498.871 165.275C498.73 158.875 492.259 155.921 484.804 152.685C476.434 149.168 471.862 144.667 472.073 137.914C472.214 130.107 478.544 123.988 490.009 123.988C495.847 123.988 500.911 125.676 505.061 127.575L505.131 140.095H504.006C501.544 129.966 495.987 126.309 489.938 126.309C483.819 126.309 480.021 129.685 479.951 133.905C479.88 139.11 486 142.064 494.721 145.792C503.373 149.731 507.03 154.303 506.889 161.336C506.678 171.817 498.73 176.177 489.516 176.177ZM509.708 187.924L510.833 181.242L511.677 180.749C517.867 184.477 523.494 183 525.252 178.428L525.604 177.584L513.084 146.777C511.255 142.275 509.286 141.431 507.387 141.15V140.095H525.393V141.15C522.579 141.572 520.751 142.627 522.368 146.847L529.965 166.401L537.702 146.847C539.39 142.486 537.139 141.431 534.255 141.15V140.095H546.494V141.15C544.384 141.431 542.133 142.346 540.374 146.847L527.432 179.131C523.494 188.979 517.867 192.144 509.708 187.924ZM560.462 176.037C557.227 176.037 552.514 175.122 547.239 172.872L547.45 162.954H548.505C552.022 171.254 556.313 173.716 560.533 173.716C564.261 173.716 566.371 171.746 566.371 168.651C566.371 164.361 561.869 163.165 556.524 160.844C550.193 158.171 546.817 155.358 546.817 150.364C546.817 144.034 551.811 139.673 560.111 139.673C563.206 139.673 567.355 140.447 571.646 142.346L571.505 151.56H570.38C567.637 143.682 563.628 141.994 560.04 141.994C556.102 141.994 553.64 143.963 553.64 146.777C553.64 150.505 558.352 151.56 564.823 154.514C569.184 156.272 573.404 158.664 573.404 164.853C573.404 171.887 567.988 176.037 560.462 176.037ZM588.888 175.966C583.19 175.966 579.885 171.957 579.885 165.416V142.557H574.75V141.431C579.674 139.884 584.456 136.086 587.34 130.107H588.677V140.095H598.313V142.557H588.677V164.502C588.677 168.3 590.224 170.902 593.319 170.902C594.726 170.902 596.273 170.339 598.102 168.792L598.875 169.003C597.047 172.872 593.952 175.966 588.888 175.966ZM616.634 175.966C608.264 175.966 600.105 169.706 600.105 157.749C600.105 146.566 606.716 139.673 616.212 139.673C626.34 139.673 631.264 147.621 631.193 156.835H609.108C609.459 166.401 614.172 170.972 620.01 170.972C623.667 170.972 627.325 169.284 630.349 165.557L631.193 165.768C629.435 170.691 624.371 175.966 616.634 175.966ZM609.108 154.655H622.542C622.401 148.676 620.502 141.853 616.071 141.853C611.499 141.853 609.389 149.098 609.108 154.655ZM674.601 174.278C676.922 173.997 678.962 173.083 678.962 168.229V152.052C678.962 147.48 676.219 145.44 672.843 145.44C670.662 145.44 668.482 146.425 666.442 148.465C666.583 149.239 666.653 150.012 666.653 150.927V168.229C666.653 173.083 668.763 173.997 671.084 174.278V175.333H653.782V174.278C656.103 173.997 658.142 173.083 658.142 168.229V152.052C658.142 147.41 655.47 145.44 652.094 145.44C649.843 145.44 647.733 146.425 645.834 148.395V168.229C645.834 173.083 647.944 173.997 650.405 174.278V175.333H632.118V174.278C634.791 173.997 637.323 173.083 637.323 168.229V147.199C637.323 142.346 634.791 141.431 632.118 141.15V140.095H645.834V146.496C648.436 142.275 651.953 139.673 656.595 139.673C661.097 139.673 664.895 142.135 666.161 147.058C668.834 142.486 672.561 139.673 677.344 139.673C682.83 139.673 687.543 143.401 687.543 150.927V168.229C687.543 173.083 690.005 173.997 692.537 174.278V175.333H674.601V174.278Z" fill="#00AE35"/>
<defs>
<filter id="filter0_d_242_273" x="-7.62939e-06" y="4.76837e-06" width="280" height="280" filterUnits="userSpaceOnUse" color-interpolation-filters="sRGB">
<feFlood flood-opacity="0" result="BackgroundImageFix"/>
<feColorMatrix in="SourceAlpha" type="matrix" values="0 0 0 0 0 0 0 0 0 0 0 0 0 0 0 0 0 0 127 0" result="hardAlpha"/>
<feOffset dy="11.6667"/>
<feGaussianBlur stdDeviation="35"/>
<feComposite in2="hardAlpha" operator="out"/>
<feColorMatrix type="matrix" values="0 0 0 0 0 0 0 0 0 0 0 0 0 0 0 0 0 0 0.1 0"/>
<feBlend mode="normal" in2="BackgroundImageFix" result="effect1_dropShadow_242_273"/>
<feBlend mode="normal" in="SourceGraphic" in2="effect1_dropShadow_242_273" result="shape"/>
</filter>
<filter id="filter1_f_242_273" x="-124.639" y="-298.32" width="603.167" height="612.889" filterUnits="userSpaceOnUse" color-interpolation-filters="sRGB">
<feFlood flood-opacity="0" result="BackgroundImageFix"/>
<feBlend mode="normal" in="SourceGraphic" in2="BackgroundImageFix" result="shape"/>
<feGaussianBlur stdDeviation="83.7083" result="effect1_foregroundBlur_242_273"/>
</filter>
<clipPath id="clip0_242_273">
<rect x="70" y="58.3333" width="140" height="140" rx="46.6667" fill="white"/>
</clipPath>
</defs>
</svg>
