<svg width="312" height="75" viewBox="0 0 312 75" fill="none" xmlns="http://www.w3.org/2000/svg">
<path d="M25.7522 4.4956C28.9298 2.6442 32.8574 2.6442 36.035 4.4956L56.7158 16.5452C59.8559 18.3747 61.7872 21.7352 61.7872 25.3694V49.6306C61.7872 53.2648 59.856 56.6253 56.7158 58.4548L36.035 70.5044C32.8574 72.3558 28.9298 72.3558 25.7522 70.5044L5.07139 58.4548C1.93129 56.6253 0 53.2648 0 49.6306V25.3694C0 21.7352 1.93128 18.3747 5.07138 16.5452L25.7522 4.4956Z" fill="#0029CC"/>
<mask id="mask0_187_1633" style="mask-type:alpha" maskUnits="userSpaceOnUse" x="0" y="3" width="62" height="69">
<path d="M25.7522 4.4956C28.9298 2.6442 32.8574 2.6442 36.035 4.4956L56.7158 16.5452C59.8559 18.3747 61.7872 21.7352 61.7872 25.3694V49.6306C61.7872 53.2648 59.856 56.6253 56.7158 58.4548L36.035 70.5044C32.8574 72.3558 28.9298 72.3558 25.7522 70.5044L5.07139 58.4548C1.93129 56.6253 0 53.2648 0 49.6306V25.3694C0 21.7352 1.93128 18.3747 5.07138 16.5452L25.7522 4.4956Z" fill="#0029CC"/>
</mask>
<g mask="url(#mask0_187_1633)">
<g filter="url(#filter0_f_187_1633)">
<rect x="5.61694" y="-24.7979" width="70.4681" height="73.0213" rx="10.2128" fill="#92A8FF"/>
</g>
</g>
<path d="M45.3511 38.0848C46.2163 38.2096 46.2163 39.7904 45.3511 39.9152C35.9617 41.2701 33.2701 43.9617 31.9152 53.3511C31.7904 54.2163 30.2096 54.2163 30.0848 53.3511C28.7299 43.9617 26.0382 41.2701 16.649 39.9152C15.7837 39.7904 15.7837 38.2096 16.649 38.0848C26.0382 36.7299 28.7299 34.0382 30.0848 24.649C30.2096 23.7837 31.7904 23.7837 31.9152 24.649C33.2701 34.0382 35.9617 36.7299 45.3511 38.0848Z" fill="white"/>
<path d="M45.7837 25.6949C46.0721 25.7365 46.0721 26.2635 45.7837 26.3051C42.6539 26.7567 41.7567 27.6539 41.3051 30.7837C41.2635 31.0721 40.7365 31.0721 40.6949 30.7837C40.2433 27.6539 39.3461 26.7567 36.2163 26.3051C35.9279 26.2635 35.9279 25.7365 36.2163 25.6949C39.3461 25.2433 40.2433 24.3461 40.6949 21.2163C40.7365 20.9279 41.2635 20.9279 41.3051 21.2163C41.7567 24.3461 42.6539 25.2433 45.7837 25.6949Z" fill="white"/>
<path d="M101.75 54.0324C103.856 53.6909 106.36 52.9509 104.767 49.0235L101.693 41.3395H87.9756L84.9589 49.0235C83.4221 52.9509 85.8127 53.6909 87.9756 54.0324V55H76.478V54.0324C78.5271 53.6909 81.2022 52.9509 82.7391 49.0235L96.5134 14.0184H99.9286L114.158 49.0235C115.752 53.0078 117.915 53.6909 119.566 54.0324V55H101.75V54.0324ZM88.7155 39.4042H100.896L94.7489 24.093L88.7155 39.4042ZM130.726 55.5692C128.336 55.5692 124.522 55 119.968 53.1786L120.025 44.8684H120.993C124.351 51.5849 127.482 53.6339 130.84 53.6339C133.686 53.6339 135.109 52.0971 135.109 49.9911C135.109 46.576 131.238 45.6084 126.913 43.6731C121.847 41.3964 119.342 38.835 119.342 34.9076C119.342 29.6711 123.441 25.9713 130.555 25.9713C132.889 25.9713 136.304 26.4836 140.061 28.0204L140.004 35.7614H138.979C136.361 29.2157 133.231 27.9066 130.498 27.9066C127.482 27.9066 125.717 29.4434 125.717 31.4925C125.717 34.3954 129.815 35.3061 135.166 37.9243C138.296 39.2904 141.655 41.2256 141.655 46.2914C141.655 52.1541 137.158 55.5692 130.726 55.5692ZM153.661 55.5692C148.823 55.5692 145.977 52.2679 145.977 46.5191V28.4189H141.822V27.5082C146.205 25.9713 150.417 22.727 153.149 17.8889H154.287V26.3129H162.028V28.4189H154.287V45.7222C154.287 48.7389 155.54 50.9018 157.93 50.9018C159.069 50.9018 160.264 50.4465 161.573 49.3081L162.313 49.5358C160.776 52.7802 158.101 55.5692 153.661 55.5692ZM162.589 54.1462C164.524 53.8047 166.63 53.0648 166.63 49.1943V32.1186C166.63 28.2481 164.524 27.5082 162.589 27.1666V26.3129H174.883V35.5906C176.192 29.6711 180.746 25.1176 186.495 26.199L185.186 33.8831H184.673C179.949 31.7202 175.509 34.7369 174.883 40.941V49.1943C174.883 53.0648 176.989 53.8047 178.924 54.1462V55H162.589V54.1462ZM194.208 55.5123C189.54 55.5123 186.011 52.211 186.011 47.6575C186.011 41.5102 192.159 37.5259 201.664 39.1765V35.7614C201.664 31.8909 198.818 30.1834 195.688 30.1834C193.126 30.1834 190.053 31.2648 187.719 34.7369L186.865 34.5092C188.117 30.2403 192.329 26.0852 198.761 25.9713C205.364 25.8575 209.803 30.0695 209.803 35.5337V48.5682C209.803 49.9911 210.031 51.3003 211.056 51.3003C211.226 51.3003 211.625 51.2434 211.909 51.1295L212.308 51.471C211.511 53.4632 209.519 55.5123 206.616 55.5123C203.941 55.5123 202.119 53.8047 201.721 51.5279C200.184 53.6909 197.68 55.5123 194.208 55.5123ZM193.638 46.6329C193.638 49.365 194.891 51.8695 197.68 51.8695C199.33 51.8695 200.753 50.9018 201.664 49.7065V40.7134C196.712 40.2011 193.638 42.5348 193.638 46.6329ZM212.306 54.1462C214.241 53.8047 216.404 53.0648 216.404 49.1943V20.1087C216.404 16.1813 214.241 15.8398 212.249 15.8967L212.135 15.0429L224.657 12.88V49.1943C224.657 53.0648 226.82 53.8047 228.812 54.1462V55H212.306V54.1462ZM240.809 55V54.0324C242.915 53.6909 245.363 52.9509 245.363 48.7389V20.2795C245.363 16.0675 242.915 15.3275 240.809 14.9291V14.0184H259.251C269.667 14.0184 278.546 22.0439 278.546 34.3384C278.546 47.0883 269.667 55 259.251 55H240.809ZM254.185 53.0078H256.69C264.943 53.0078 268.984 43.9577 268.984 34.3384C268.927 25.1176 264.943 16.0675 256.69 16.0675H254.185V53.0078ZM296.189 55.683C292.432 55.683 287.48 54.7154 282.13 52.3817L282.244 41.681H283.268C285.716 50.1619 290.896 53.6339 295.904 53.6339C300.003 53.6339 303.19 51.4141 303.019 47.259C302.905 42.1363 297.384 39.6888 291.635 37.0705C285.488 34.3384 281.504 30.7525 281.675 25.0037C281.845 18.5719 287.025 13.4492 296.644 13.4492C301.596 13.4492 305.694 14.9291 309.053 16.2951L308.996 26.7682H308.085C305.751 18.6857 301.653 15.4413 296.644 15.4413C292.034 15.4413 289.188 17.8889 289.131 21.1332C289.131 25.4591 294.652 27.6789 301.084 30.5818C308.199 34.0538 310.76 37.9243 310.646 43.3885C310.419 52.0402 303.873 55.683 296.189 55.683Z" fill="#0F0F0F"/>
<defs>
<filter id="filter0_f_187_1633" x="-38.349" y="-68.7638" width="158.4" height="160.953" filterUnits="userSpaceOnUse" color-interpolation-filters="sRGB">
<feFlood flood-opacity="0" result="BackgroundImageFix"/>
<feBlend mode="normal" in="SourceGraphic" in2="BackgroundImageFix" result="shape"/>
<feGaussianBlur stdDeviation="21.983" result="effect1_foregroundBlur_187_1633"/>
</filter>
</defs>
</svg>
