<svg width="358" height="144" viewBox="0 0 358 144" fill="none" xmlns="http://www.w3.org/2000/svg">
<g filter="url(#filter0_d_242_285)">
<g clip-path="url(#clip0_242_285)">
<rect x="36" y="30" width="72" height="72" rx="24" fill="#056C1D"/>
<g filter="url(#filter1_f_242_285)">
<rect x="22" y="-67.3215" width="138" height="143" rx="20" fill="#44E079"/>
</g>
<path d="M81.5149 53.8214C79.1223 53.8214 77.1416 55.5762 76.7575 57.8767C76.3733 55.5757 74.3926 53.8214 72.0001 53.8214C69.6075 53.8214 67.6268 55.5762 67.2426 57.8767C66.8585 55.5757 64.8778 53.8214 62.4852 53.8214C59.8181 53.8214 57.6556 56.0004 57.6556 58.688C57.6556 61.3756 59.8181 63.5545 62.4852 63.5545C64.8778 63.5545 66.8585 61.7998 67.2426 59.4992C67.6268 61.8003 69.6075 63.5545 72.0001 63.5545C74.3926 63.5545 76.3733 61.7998 76.7575 59.4992C77.1416 61.8003 79.1223 63.5545 81.5149 63.5545C84.1821 63.5545 86.3445 61.3756 86.3445 58.688C86.3445 56.0004 84.1821 53.8214 81.5149 53.8214V53.8214Z" fill="white"/>
<path d="M81.5149 68.4454C79.1223 68.4454 77.1416 70.2002 76.7575 72.5007C76.3733 70.1996 74.3926 68.4454 72.0001 68.4454C69.6075 68.4454 67.6268 70.2002 67.2426 72.5007C66.8585 70.1996 64.8778 68.4454 62.4852 68.4454C59.8181 68.4454 57.6556 70.6243 57.6556 73.3119C57.6556 75.9995 59.8181 78.1785 62.4852 78.1785C64.8778 78.1785 66.8585 76.4237 67.2426 74.1232C67.6268 76.4242 69.6075 78.1785 72.0001 78.1785C74.3926 78.1785 76.3733 76.4237 76.7575 74.1232C77.1416 76.4242 79.1223 78.1785 81.5149 78.1785C84.1821 78.1785 86.3445 75.9995 86.3445 73.3119C86.3445 70.6243 84.1821 68.4454 81.5149 68.4454V68.4454Z" fill="white"/>
</g>
</g>
<path d="M147.963 82.5324C150.069 82.1909 152.573 81.4509 150.98 77.5235L147.906 69.8395H134.188L131.172 77.5235C129.635 81.4509 132.026 82.1909 134.188 82.5324V83.5H122.691V82.5324C124.74 82.1909 127.415 81.4509 128.952 77.5235L142.726 42.5184H146.141L160.371 77.5235C161.965 81.5078 164.128 82.1909 165.778 82.5324V83.5H147.963V82.5324ZM134.928 67.9042H147.109L140.962 52.593L134.928 67.9042ZM176.939 84.0692C174.548 84.0692 170.735 83.5 166.181 81.6786L166.238 73.3684H167.206C170.564 80.0849 173.695 82.1339 177.053 82.1339C179.899 82.1339 181.322 80.5971 181.322 78.4911C181.322 75.076 177.451 74.1084 173.125 72.1731C168.06 69.8964 165.555 67.335 165.555 63.4076C165.555 58.1711 169.653 54.4713 176.768 54.4713C179.102 54.4713 182.517 54.9836 186.274 56.5204L186.217 64.2614H185.192C182.574 57.7157 179.443 56.4066 176.711 56.4066C173.695 56.4066 171.93 57.9434 171.93 59.9925C171.93 62.8954 176.028 63.8061 181.379 66.4243C184.509 67.7904 187.867 69.7256 187.867 74.7914C187.867 80.6541 183.371 84.0692 176.939 84.0692ZM199.874 84.0692C195.036 84.0692 192.19 80.7679 192.19 75.0191V56.9189H188.035V56.0082C192.418 54.4713 196.63 51.227 199.362 46.3889H200.5V54.8129H208.241V56.9189H200.5V74.2222C200.5 77.2389 201.753 79.4018 204.143 79.4018C205.282 79.4018 206.477 78.9465 207.786 77.8081L208.526 78.0358C206.989 81.2802 204.314 84.0692 199.874 84.0692ZM208.802 82.6462C210.737 82.3047 212.843 81.5648 212.843 77.6943V60.6186C212.843 56.7481 210.737 56.0082 208.802 55.6666V54.8129H221.096V64.0906C222.405 58.1711 226.959 53.6176 232.708 54.699L231.398 62.3831H230.886C226.162 60.2202 221.722 63.2369 221.096 69.441V77.6943C221.096 81.5648 223.202 82.3047 225.137 82.6462V83.5H208.802V82.6462ZM240.421 84.0123C235.753 84.0123 232.224 80.711 232.224 76.1575C232.224 70.0102 238.371 66.0259 247.877 67.6765V64.2614C247.877 60.3909 245.031 58.6834 241.9 58.6834C239.339 58.6834 236.265 59.7648 233.932 63.2369L233.078 63.0092C234.33 58.7403 238.542 54.5852 244.974 54.4713C251.577 54.3575 256.016 58.5695 256.016 64.0337V77.0682C256.016 78.4911 256.244 79.8003 257.269 79.8003C257.439 79.8003 257.838 79.7434 258.122 79.6295L258.521 79.971C257.724 81.9632 255.732 84.0123 252.829 84.0123C250.154 84.0123 248.332 82.3047 247.934 80.0279C246.397 82.1909 243.893 84.0123 240.421 84.0123ZM239.851 75.1329C239.851 77.865 241.104 80.3695 243.893 80.3695C245.543 80.3695 246.966 79.4018 247.877 78.2065V69.2134C242.925 68.7011 239.851 71.0348 239.851 75.1329ZM258.519 82.6462C260.454 82.3047 262.617 81.5648 262.617 77.6943V48.6087C262.617 44.6813 260.454 44.3398 258.462 44.3967L258.348 43.5429L270.87 41.38V77.6943C270.87 81.5648 273.033 82.3047 275.025 82.6462V83.5H258.519V82.6462ZM287.022 83.5V82.5324C289.128 82.1909 291.576 81.4509 291.576 77.2389V48.7795C291.576 44.5675 289.128 43.8275 287.022 43.4291V42.5184H305.464C315.88 42.5184 324.759 50.5439 324.759 62.8384C324.759 75.5883 315.88 83.5 305.464 83.5H287.022ZM300.398 81.5078H302.902C311.156 81.5078 315.197 72.4577 315.197 62.8384C315.14 53.6176 311.156 44.5675 302.902 44.5675H300.398V81.5078ZM342.402 84.183C338.645 84.183 333.693 83.2154 328.343 80.8817L328.457 70.181H329.481C331.929 78.6619 337.108 82.1339 342.117 82.1339C346.215 82.1339 349.403 79.9141 349.232 75.759C349.118 70.6363 343.597 68.1888 337.848 65.5705C331.701 62.8384 327.717 59.2525 327.888 53.5037C328.058 47.0719 333.238 41.9492 342.857 41.9492C347.809 41.9492 351.907 43.4291 355.266 44.7951L355.209 55.2682H354.298C351.964 47.1857 347.866 43.9413 342.857 43.9413C338.247 43.9413 335.401 46.3889 335.344 49.6332C335.344 53.9591 340.865 56.1789 347.297 59.0818C354.412 62.5538 356.973 66.4243 356.859 71.8885C356.632 80.5402 350.086 84.183 342.402 84.183Z" fill="#0F0F0F"/>
<defs>
<filter id="filter0_d_242_285" x="-3.8147e-06" y="-2.86102e-06" width="144" height="144" filterUnits="userSpaceOnUse" color-interpolation-filters="sRGB">
<feFlood flood-opacity="0" result="BackgroundImageFix"/>
<feColorMatrix in="SourceAlpha" type="matrix" values="0 0 0 0 0 0 0 0 0 0 0 0 0 0 0 0 0 0 127 0" result="hardAlpha"/>
<feOffset dy="6"/>
<feGaussianBlur stdDeviation="18"/>
<feComposite in2="hardAlpha" operator="out"/>
<feColorMatrix type="matrix" values="0 0 0 0 0 0 0 0 0 0 0 0 0 0 0 0 0 0 0.1 0"/>
<feBlend mode="normal" in2="BackgroundImageFix" result="effect1_dropShadow_242_285"/>
<feBlend mode="normal" in="SourceGraphic" in2="effect1_dropShadow_242_285" result="shape"/>
</filter>
<filter id="filter1_f_242_285" x="-64.1" y="-153.422" width="310.2" height="315.2" filterUnits="userSpaceOnUse" color-interpolation-filters="sRGB">
<feFlood flood-opacity="0" result="BackgroundImageFix"/>
<feBlend mode="normal" in="SourceGraphic" in2="BackgroundImageFix" result="shape"/>
<feGaussianBlur stdDeviation="43.05" result="effect1_foregroundBlur_242_285"/>
</filter>
<clipPath id="clip0_242_285">
<rect x="36" y="30" width="72" height="72" rx="24" fill="white"/>
</clipPath>
</defs>
</svg>
